<svg xmlns="http://www.w3.org/2000/svg" width="2120" height="512" viewBox="0 0 2120 512">
  <defs>
    <linearGradient id="logo-gradient" x1="0%" y1="100%" x2="100%" y2="0%" gradientUnits="objectBoundingBox">
      <stop offset="0" stop-color="#8b52ff"/>
      <stop offset="1" stop-color="#a852ff"/>
    </linearGradient>
  </defs>
  <path fill="#000" d="M705.527,125.453h43.399v257.621h-43.399V125.453ZM961.06,274.399v108.675h-40.97v-22.557c-4.286,6.47-10.105,11.808-17.534,15.96-10.764,6.02-24.364,9.028-40.796,9.028-13.887,0-26.039-2.376-36.455-7.119-10.417-4.741-18.462-11.337-24.13-19.789-5.676-8.447-8.508-17.996-8.508-28.644,0-10.417,2.485-19.792,7.467-28.124,4.974-8.332,13.133-14.931,24.477-19.789,11.337-4.861,26.386-7.293,45.134-7.293h47.916v-2.776c0-12.725-3.82-22.621-11.458-29.685-7.64-7.058-19.216-10.589-34.72-10.589-10.417,0-20.66,1.622-30.729,4.86-10.067,3.244-18.575,7.758-25.518,13.541l-17.013-31.595c9.949-7.638,21.814-13.367,35.588-17.187,13.769-3.819,28.063-5.729,42.881-5.729,26.846,0,47.619,6.424,62.321,19.27,14.697,12.846,22.048,32.697,22.048,59.543h0ZM917.661,325.092v-21.525h-44.79c-14.815,0-24.771,2.376-29.859,7.115-5.095,4.748-7.638,10.59-7.638,17.536,0,7.871,3.124,14.121,9.373,18.748,6.249,4.632,14.931,6.944,26.041,6.944,10.643,0,20.19-2.429,28.642-7.291,8.447-4.861,14.523-12.034,18.23-21.527h0ZM1057.928,224.83v-27.16h-41.317v185.404h43.399v-89.924c0-18.977,4.861-33.272,14.581-42.88,9.722-9.602,22.797-14.409,39.234-14.409,1.617,0,3.239.06,4.861.174,1.617.119,3.352.407,5.208.868v-41.317c-17.828,0-32.698,3.245-44.616,9.722-8.89,4.833-16.003,11.343-21.351,19.521h0ZM1302.702,274.399v108.675h-40.97v-22.557c-4.286,6.47-10.105,11.808-17.534,15.96-10.764,6.02-24.364,9.028-40.796,9.028-13.887,0-26.039-2.376-36.455-7.119-10.417-4.741-18.462-11.337-24.13-19.789-5.676-8.447-8.508-17.996-8.508-28.644,0-10.417,2.485-19.792,7.467-28.124,4.974-8.332,13.133-14.931,24.477-19.789,11.337-4.861,26.386-7.293,45.134-7.293h47.916v-2.776c0-12.725-3.82-22.621-11.458-29.685-7.64-7.058-19.216-10.589-34.72-10.589-10.417,0-20.66,1.622-30.729,4.86-10.067,3.244-18.575,7.758-25.518,13.541l-17.013-31.595c9.949-7.638,21.814-13.367,35.588-17.187,13.769-3.819,28.063-5.729,42.881-5.729,26.846,0,47.619,6.424,62.321,19.27,14.697,12.846,22.048,32.697,22.048,59.543h-.001ZM1259.303,325.092v-21.525h-44.79c-14.815,0-24.771,2.376-29.859,7.115-5.095,4.748-7.638,10.59-7.638,17.536,0,7.871,3.124,14.121,9.373,18.748,6.249,4.632,14.931,6.944,26.041,6.944,10.643,0,20.19-2.429,28.642-7.291,8.447-4.861,14.523-12.034,18.23-21.527h0ZM1415.018,200.1c7.753-7.639,16.895-13.541,27.43-17.707,10.53-4.166,22.161-6.249,34.894-6.249s24.53,2.376,35.414,7.117c10.877,4.747,20.713,11.865,29.512,21.354l29.165-27.43c-11.344-13.421-25.232-23.549-41.664-30.38-16.439-6.824-34.607-10.243-54.512-10.243-18.748,0-35.993,3.072-51.731,9.202-15.745,6.135-29.512,14.815-41.317,26.039-11.805,11.23-20.951,24.478-27.43,39.755-6.483,15.277-9.722,31.943-9.722,49.996s3.239,34.72,9.722,49.998c6.478,15.278,15.565,28.529,27.256,39.755,11.684,11.229,25.458,19.908,41.317,26.039,15.851,6.131,33.038,9.202,51.557,9.202,20.139,0,38.42-3.473,54.859-10.417,16.432-6.946,30.319-17.013,41.664-30.208l-29.165-27.774c-8.799,9.722-18.635,16.958-29.512,21.701-10.884,4.746-22.689,7.117-35.414,7.117s-24.364-2.085-34.894-6.249c-10.535-4.167-19.676-10.069-27.43-17.707-7.758-7.638-13.774-16.666-18.054-27.083-4.285-10.417-6.423-21.874-6.423-34.373s2.138-23.955,6.423-34.372c4.28-10.415,10.296-19.442,18.054-27.081v-.002ZM1843.287,140.035l-94.864,161.051-96.442-161.051h-37.15v243.039h43.052v-158.923l79.854,131.146h20.139l79.884-133.244.318,161.021h42.707l-.347-243.039h-37.152,0ZM2112.189,282.734c-5.208-8.334-12.039-14.928-20.486-19.792-8.452-4.859-17.825-8.792-28.124-11.805-10.301-3.004-20.657-5.728-31.074-8.157-10.417-2.431-19.85-4.915-28.297-7.465-8.452-2.544-15.275-6.076-20.484-10.59-5.208-4.513-7.811-10.47-7.811-17.881,0-6.249,1.788-11.805,5.379-16.665,3.586-4.861,9.257-8.795,17.013-11.805,7.753-3.005,17.881-4.514,30.38-4.514,10.645,0,21.756,1.563,33.332,4.688,11.571,3.125,22.795,7.93,33.679,14.409l14.234-35.067c-10.648-6.945-23.147-12.266-37.497-15.972-14.355-3.7-28.818-5.555-43.399-5.555-22.221,0-40.57,3.299-55.033,9.896-14.468,6.596-25.232,15.396-32.288,26.387-7.064,10.996-10.59,23.089-10.59,36.282,0,12.965,2.658,23.61,7.985,31.943,5.322,8.333,12.207,14.989,20.66,19.963,8.445,4.979,17.82,9.028,28.124,12.152,10.296,3.126,20.597,5.849,30.9,8.161,10.296,2.316,19.671,4.806,28.124,7.464,8.445,2.663,15.331,6.249,20.657,10.764,5.322,4.514,7.985,10.477,7.985,17.881,0,6.02-1.853,11.405-5.555,16.143-3.704,4.748-9.493,8.508-17.358,11.284-7.874,2.779-18.175,4.167-30.903,4.167-15.049,0-29.746-2.543-44.093-7.638-14.355-5.09-26.388-11.458-36.108-19.098l-15.625,35.067c10.183,8.568,23.957,15.572,41.317,21.007,17.36,5.437,35.528,8.161,54.51,8.161,22.221,0,40.623-3.299,55.206-9.896,14.581-6.596,25.398-15.391,32.462-26.386,7.059-10.993,10.59-22.971,10.59-35.935,0-12.73-2.605-23.262-7.811-31.597h0Z" />
  <rect fill="url(#logo-gradient)" x="0" y="0" width="512" height="512" rx="102" ry="102" />
  <path fill="#fff" d="M138.382,361.403v-138.73c0-4.488,1.004-8.739,3.011-12.754,2.01-4.017,4.786-7.325,8.327-9.923l89.272-67.254c4.953-3.779,10.614-5.669,16.984-5.669s12.047,1.89,17.031,5.669l89.272,67.254c3.542,2.598,6.317,5.906,8.327,9.923,2.007,4.015,3.011,8.266,3.011,12.754v138.73c0,6.414-2.317,11.938-6.951,16.572-4.634,4.634-10.158,6.951-16.572,6.951h-50.062c-4.017,0-7.384-1.359-10.099-4.077-2.718-2.716-4.077-6.082-4.077-10.099v-76.6c0-4.015-1.358-7.381-4.073-10.099-2.716-2.716-6.082-4.074-10.099-4.073h-31.365c-4.017,0-7.384,1.358-10.099,4.073-2.716,2.718-4.073,6.085-4.073,10.099v76.6c0,4.017-1.359,7.384-4.077,10.099-2.716,2.718-6.082,4.077-10.099,4.077h-50.062c-6.414,0-11.938-2.317-16.572-6.951-4.634-4.634-6.951-10.158-6.951-16.572Z" />
</svg>
