<svg xmlns="http://www.w3.org/2000/svg" width="512" height="512" viewBox="0 0 512 512">
  <defs>
    <linearGradient id="logo-gradient" x1="0%" y1="100%" x2="100%" y2="0%" gradientUnits="objectBoundingBox">
      <stop offset="0" stop-color="#8b52ff"/>
      <stop offset="1" stop-color="#a852ff"/>
    </linearGradient>
  </defs>
  <rect fill="url(#logo-gradient)" x="0" y="0" width="512" height="512" rx="102" ry="102" />
  <path fill="#fff" d="M138.382,361.403v-138.73c0-4.488,1.004-8.739,3.011-12.754,2.01-4.017,4.786-7.325,8.327-9.923l89.272-67.254c4.953-3.779,10.614-5.669,16.984-5.669s12.047,1.89,17.031,5.669l89.272,67.254c3.542,2.598,6.317,5.906,8.327,9.923,2.007,4.015,3.011,8.266,3.011,12.754v138.73c0,6.414-2.317,11.938-6.951,16.572-4.634,4.634-10.158,6.951-16.572,6.951h-50.062c-4.017,0-7.384-1.359-10.099-4.077-2.718-2.716-4.077-6.082-4.077-10.099v-76.6c0-4.015-1.358-7.381-4.073-10.099-2.716-2.716-6.082-4.074-10.099-4.073h-31.365c-4.017,0-7.384,1.358-10.099,4.073-2.716,2.718-4.073,6.085-4.073,10.099v76.6c0,4.017-1.359,7.384-4.077,10.099-2.716,2.718-6.082,4.077-10.099,4.077h-50.062c-6.414,0-11.938-2.317-16.572-6.951-4.634-4.634-6.951-10.158-6.951-16.572Z" />
</svg>
